<svg xmlns="http://www.w3.org/2000/svg" width="18" height="18.007" viewBox="0 0 18 18.007">
  <path id="internet" fill="#f7bb8e" d="M15.792,3.062a.281.281,0,0,0-.063-.069,8.983,8.983,0,0,0-13.42,0,.281.281,0,0,0-.06.066v.007a9,9,0,1,0,13.552,0ZM15.511,14.37a10.062,10.062,0,0,0-2.022-.9,14.28,14.28,0,0,0,.685-4.2h3.278a8.4,8.4,0,0,1-1.941,5.1ZM.591,9.266H3.869a14.28,14.28,0,0,0,.685,4.206,10.062,10.062,0,0,0-2.022.9,8.4,8.4,0,0,1-1.941-5.1ZM2.552,3.578a10.091,10.091,0,0,0,2.011.892A14.264,14.264,0,0,0,3.869,8.7H.591A8.4,8.4,0,0,1,2.552,3.578ZM9.3,5.138a14.815,14.815,0,0,0,3.656-.512A13.922,13.922,0,0,1,13.617,8.7H9.3Zm0-.562V.565c1.426.159,2.672,1.517,3.459,3.531a14.268,14.268,0,0,1-3.459.48Zm-.562,0A14.266,14.266,0,0,1,5.281,4.1C6.068,2.082,7.314.723,8.74.565Zm0,.562V8.7H4.431a13.922,13.922,0,0,1,.652-4.078,14.816,14.816,0,0,0,3.656.512ZM4.431,9.266H8.74V12.8a14.81,14.81,0,0,0-3.656.515,13.944,13.944,0,0,1-.652-4.05Zm4.309,4.1v4.042c-1.432-.16-2.689-1.53-3.471-3.559a14.261,14.261,0,0,1,3.471-.482Zm.562,0a14.262,14.262,0,0,1,3.471.482c-.782,2.029-2.039,3.4-3.471,3.559Zm0-.562V9.266h4.309a13.944,13.944,0,0,1-.653,4.049A14.811,14.811,0,0,0,9.3,12.8Zm4.871-4.1a14.263,14.263,0,0,0-.695-4.234,10.091,10.091,0,0,0,2.011-.892A8.4,8.4,0,0,1,17.452,8.7Zm.935-5.552a9.662,9.662,0,0,1-1.82.787,7.536,7.536,0,0,0-2.083-3.1,8.437,8.437,0,0,1,3.9,2.316ZM6.836.836a7.5,7.5,0,0,0-2.081,3.1,9.662,9.662,0,0,1-1.82-.787A8.437,8.437,0,0,1,6.836.836ZM2.914,14.8A9.626,9.626,0,0,1,4.742,14a7.525,7.525,0,0,0,2.092,3.132A8.437,8.437,0,0,1,2.914,14.8Zm8.3,2.336A7.626,7.626,0,0,0,13.3,14a9.627,9.627,0,0,1,1.828.8,8.437,8.437,0,0,1-3.925,2.336Z" transform="translate(-0.025 0.017)"/>
</svg>
