<?xml version="1.0" encoding="UTF-8"?>
<svg id="Layer_1" xmlns="http://www.w3.org/2000/svg" version="1.1" viewBox="0 0 14 13.4">
  <!-- Generator: Adobe Illustrator 29.1.0, SVG Export Plug-In . SVG Version: 2.1.0 Build 142)  -->
  <defs>
    <style>
      .st0 {
        fill: #fff;
      }
    </style>
  </defs>
  <path id="Icon_awesome-star" class="st0" d="M6.2.5l-1.7,3.5-3.8.6c-.5,0-.8.5-.7,1,0,.2.1.3.2.5l2.8,2.7-.7,3.8c0,.5.2.9.7,1,.2,0,.4,0,.5,0l3.4-1.8,3.4,1.8c.4.2.9,0,1.1-.4,0-.2.1-.3,0-.5l-.7-3.8,2.8-2.7c.3-.3.3-.9,0-1.2-.1-.1-.3-.2-.5-.2l-3.8-.6L7.8.5c-.2-.4-.7-.6-1.1-.4-.2,0-.3.2-.4.4Z"/>
</svg>